<mxfile>
    <diagram id="AXjrga006UrR6-3hh8hV" name="Estados RadioButtons">
        <mxGraphModel dx="652" dy="314" grid="1" gridSize="10" guides="1" tooltips="1" connect="1" arrows="1" fold="1" page="1" pageScale="1" pageWidth="850" pageHeight="1100" math="0" shadow="0">
            <root>
                <mxCell id="0"/>
                <mxCell id="1" parent="0"/>
                <mxCell id="2" value="Estado 1&lt;br&gt;☑ BC ☐ EC&lt;br&gt;☐ BN ☑&amp;nbsp;EN" style="ellipse;whiteSpace=wrap;html=1;aspect=fixed;rounded=0;sketch=0;" parent="1" vertex="1">
                    <mxGeometry x="190" y="100" width="110" height="110" as="geometry"/>
                </mxCell>
                <mxCell id="3" value="BC: Buscar Por Codigo&lt;br&gt;EC: Editar Codigo&lt;br&gt;BN: Buscar Por Nombre&lt;br&gt;EN: Editar Nombre" style="text;html=1;strokeColor=none;fillColor=none;align=center;verticalAlign=middle;whiteSpace=wrap;rounded=0;sketch=0;" parent="1" vertex="1">
                    <mxGeometry x="335" width="180" height="80" as="geometry"/>
                </mxCell>
                <mxCell id="4" value="Inicio" style="ellipse;whiteSpace=wrap;html=1;aspect=fixed;" parent="1" vertex="1">
                    <mxGeometry x="255" width="80" height="80" as="geometry"/>
                </mxCell>
                <mxCell id="6" value="Estado&amp;nbsp;2&lt;br&gt;☐ BC ☑&amp;nbsp;EC&lt;br&gt;☐ BN ☑&amp;nbsp;EN" style="ellipse;whiteSpace=wrap;html=1;aspect=fixed;rounded=0;sketch=0;" parent="1" vertex="1">
                    <mxGeometry x="390" y="100" width="110" height="110" as="geometry"/>
                </mxCell>
                <mxCell id="7" value="" style="endArrow=classic;html=1;exitX=1;exitY=0;exitDx=0;exitDy=0;entryX=0;entryY=0;entryDx=0;entryDy=0;" parent="1" source="2" target="6" edge="1">
                    <mxGeometry width="50" height="50" relative="1" as="geometry">
                        <mxPoint x="330" y="220" as="sourcePoint"/>
                        <mxPoint x="380" y="170" as="targetPoint"/>
                    </mxGeometry>
                </mxCell>
                <mxCell id="8" value="EC" style="edgeLabel;html=1;align=center;verticalAlign=middle;resizable=0;points=[];" parent="7" vertex="1" connectable="0">
                    <mxGeometry x="-0.1197" relative="1" as="geometry">
                        <mxPoint x="-27.68" as="offset"/>
                    </mxGeometry>
                </mxCell>
                <mxCell id="9" value="" style="endArrow=classic;html=1;exitX=0;exitY=1;exitDx=0;exitDy=0;entryX=1;entryY=1;entryDx=0;entryDy=0;" parent="1" source="6" target="2" edge="1">
                    <mxGeometry width="50" height="50" relative="1" as="geometry">
                        <mxPoint x="330" y="210" as="sourcePoint"/>
                        <mxPoint x="380" y="160" as="targetPoint"/>
                    </mxGeometry>
                </mxCell>
                <mxCell id="11" value="BC" style="edgeLabel;html=1;align=center;verticalAlign=middle;resizable=0;points=[];" parent="9" vertex="1" connectable="0">
                    <mxGeometry x="-0.4985" y="1" relative="1" as="geometry">
                        <mxPoint as="offset"/>
                    </mxGeometry>
                </mxCell>
                <mxCell id="12" value="" style="endArrow=classic;html=1;exitX=0;exitY=1;exitDx=0;exitDy=0;entryX=0.5;entryY=0;entryDx=0;entryDy=0;" parent="1" source="4" target="2" edge="1">
                    <mxGeometry width="50" height="50" relative="1" as="geometry">
                        <mxPoint x="340" y="180" as="sourcePoint"/>
                        <mxPoint x="390" y="130" as="targetPoint"/>
                    </mxGeometry>
                </mxCell>
                <mxCell id="13" value="Estado&amp;nbsp;3&lt;br&gt;☐ BC ☑&amp;nbsp;EC&lt;br&gt;☑&amp;nbsp;BN ☐ EN" style="ellipse;whiteSpace=wrap;html=1;aspect=fixed;rounded=0;sketch=0;" parent="1" vertex="1">
                    <mxGeometry x="290" y="270" width="100" height="100" as="geometry"/>
                </mxCell>
                <mxCell id="15" value="" style="endArrow=classic;html=1;exitX=0;exitY=1;exitDx=0;exitDy=0;entryX=0;entryY=0.5;entryDx=0;entryDy=0;" parent="1" source="2" target="13" edge="1">
                    <mxGeometry width="50" height="50" relative="1" as="geometry">
                        <mxPoint x="340" y="290" as="sourcePoint"/>
                        <mxPoint x="390" y="240" as="targetPoint"/>
                    </mxGeometry>
                </mxCell>
                <mxCell id="16" value="BN" style="edgeLabel;html=1;align=center;verticalAlign=middle;resizable=0;points=[];" parent="15" vertex="1" connectable="0">
                    <mxGeometry x="-0.4812" relative="1" as="geometry">
                        <mxPoint as="offset"/>
                    </mxGeometry>
                </mxCell>
                <mxCell id="17" value="" style="endArrow=classic;html=1;exitX=0.5;exitY=0;exitDx=0;exitDy=0;" parent="1" source="13" target="2" edge="1">
                    <mxGeometry width="50" height="50" relative="1" as="geometry">
                        <mxPoint x="340" y="280" as="sourcePoint"/>
                        <mxPoint x="290" y="190" as="targetPoint"/>
                    </mxGeometry>
                </mxCell>
                <mxCell id="18" value="BC" style="edgeLabel;html=1;align=center;verticalAlign=middle;resizable=0;points=[];" parent="17" vertex="1" connectable="0">
                    <mxGeometry x="-0.5787" relative="1" as="geometry">
                        <mxPoint as="offset"/>
                    </mxGeometry>
                </mxCell>
                <mxCell id="19" value="" style="endArrow=classic;html=1;entryX=0.188;entryY=0.899;entryDx=0;entryDy=0;entryPerimeter=0;" parent="1" target="6" edge="1">
                    <mxGeometry width="50" height="50" relative="1" as="geometry">
                        <mxPoint x="350" y="270" as="sourcePoint"/>
                        <mxPoint x="400" y="220" as="targetPoint"/>
                    </mxGeometry>
                </mxCell>
                <mxCell id="22" value="EN" style="edgeLabel;html=1;align=center;verticalAlign=middle;resizable=0;points=[];" parent="19" vertex="1" connectable="0">
                    <mxGeometry x="-0.588" relative="1" as="geometry">
                        <mxPoint as="offset"/>
                    </mxGeometry>
                </mxCell>
                <mxCell id="23" value="" style="endArrow=classic;html=1;exitX=1;exitY=1;exitDx=0;exitDy=0;entryX=1;entryY=0.5;entryDx=0;entryDy=0;" parent="1" source="6" target="13" edge="1">
                    <mxGeometry width="50" height="50" relative="1" as="geometry">
                        <mxPoint x="340" y="250" as="sourcePoint"/>
                        <mxPoint x="390" y="200" as="targetPoint"/>
                    </mxGeometry>
                </mxCell>
                <mxCell id="24" value="BN" style="edgeLabel;html=1;align=center;verticalAlign=middle;resizable=0;points=[];" parent="23" vertex="1" connectable="0">
                    <mxGeometry x="-0.5396" y="1" relative="1" as="geometry">
                        <mxPoint as="offset"/>
                    </mxGeometry>
                </mxCell>
                <mxCell id="PbdrhiTSZgA7ktWzv1rk-27" style="edgeStyle=orthogonalEdgeStyle;rounded=0;orthogonalLoop=1;jettySize=auto;html=1;" parent="1" source="PbdrhiTSZgA7ktWzv1rk-25" target="6" edge="1">
                    <mxGeometry relative="1" as="geometry"/>
                </mxCell>
                <mxCell id="PbdrhiTSZgA7ktWzv1rk-25" value="Sink EC/EN" style="text;html=1;strokeColor=none;fillColor=none;align=center;verticalAlign=middle;whiteSpace=wrap;rounded=0;" parent="1" vertex="1">
                    <mxGeometry x="540" y="160" width="75" height="20" as="geometry"/>
                </mxCell>
                <mxCell id="PbdrhiTSZgA7ktWzv1rk-30" style="edgeStyle=orthogonalEdgeStyle;rounded=0;orthogonalLoop=1;jettySize=auto;html=1;entryX=0.5;entryY=1;entryDx=0;entryDy=0;" parent="1" source="PbdrhiTSZgA7ktWzv1rk-28" target="13" edge="1">
                    <mxGeometry relative="1" as="geometry"/>
                </mxCell>
                <mxCell id="PbdrhiTSZgA7ktWzv1rk-28" value="Sink BN" style="text;html=1;strokeColor=none;fillColor=none;align=center;verticalAlign=middle;whiteSpace=wrap;rounded=0;" parent="1" vertex="1">
                    <mxGeometry x="407.5" y="360" width="52.5" height="20" as="geometry"/>
                </mxCell>
                <mxCell id="PbdrhiTSZgA7ktWzv1rk-35" style="edgeStyle=orthogonalEdgeStyle;rounded=0;orthogonalLoop=1;jettySize=auto;html=1;entryX=0;entryY=0.5;entryDx=0;entryDy=0;" parent="1" source="PbdrhiTSZgA7ktWzv1rk-34" target="2" edge="1">
                    <mxGeometry relative="1" as="geometry"/>
                </mxCell>
                <mxCell id="PbdrhiTSZgA7ktWzv1rk-34" value="Sink BC" style="text;html=1;strokeColor=none;fillColor=none;align=center;verticalAlign=middle;whiteSpace=wrap;rounded=0;" parent="1" vertex="1">
                    <mxGeometry x="80" y="170" width="52.5" height="20" as="geometry"/>
                </mxCell>
            </root>
        </mxGraphModel>
    </diagram>
    <diagram id="ZHiN7hlh5UhjRzbF7kAw" name="Flujo de datos">
        &#xa;
        <mxGraphModel dx="652" dy="314" grid="1" gridSize="10" guides="1" tooltips="1" connect="1" arrows="1" fold="1" page="1" pageScale="1" pageWidth="850" pageHeight="1100" math="0" shadow="0">
            &#xa;
            <root>
                &#xa;
                <mxCell id="YB-0g0CseuGmf6FloTCW-0"/>
                &#xa;
                <mxCell id="YB-0g0CseuGmf6FloTCW-1" parent="YB-0g0CseuGmf6FloTCW-0"/>
                &#xa;
                <mxCell id="YB-0g0CseuGmf6FloTCW-14" style="edgeStyle=orthogonalEdgeStyle;rounded=0;orthogonalLoop=1;jettySize=auto;html=1;" parent="YB-0g0CseuGmf6FloTCW-1" source="YB-0g0CseuGmf6FloTCW-12" target="YB-0g0CseuGmf6FloTCW-13" edge="1">
                    &#xa;
                    <mxGeometry relative="1" as="geometry"/>
                    &#xa;
                </mxCell>
                &#xa;
                <mxCell id="YB-0g0CseuGmf6FloTCW-12" value="Busco si EC1 y EC3" style="rounded=1;whiteSpace=wrap;html=1;" parent="YB-0g0CseuGmf6FloTCW-1" vertex="1">
                    &#xa;
                    <mxGeometry x="372.19" y="220" width="120" height="40" as="geometry"/>
                    &#xa;
                </mxCell>
                &#xa;
                <mxCell id="YB-0g0CseuGmf6FloTCW-17" style="edgeStyle=orthogonalEdgeStyle;rounded=0;orthogonalLoop=1;jettySize=auto;html=1;entryX=0;entryY=0.5;entryDx=0;entryDy=0;" parent="YB-0g0CseuGmf6FloTCW-1" source="YB-0g0CseuGmf6FloTCW-13" target="YB-0g0CseuGmf6FloTCW-16" edge="1">
                    &#xa;
                    <mxGeometry relative="1" as="geometry"/>
                    &#xa;
                </mxCell>
                &#xa;
                <mxCell id="YB-0g0CseuGmf6FloTCW-18" value="SI" style="edgeLabel;html=1;align=center;verticalAlign=middle;resizable=0;points=[];" parent="YB-0g0CseuGmf6FloTCW-17" vertex="1" connectable="0">
                    &#xa;
                    <mxGeometry x="-0.2595" y="-1" relative="1" as="geometry">
                        &#xa;
                        <mxPoint as="offset"/>
                        &#xa;
                    </mxGeometry>
                    &#xa;
                </mxCell>
                &#xa;
                <mxCell id="0CW6hpu5KKrxGrhu5_Tq-15" style="edgeStyle=orthogonalEdgeStyle;rounded=0;orthogonalLoop=1;jettySize=auto;html=1;entryX=0.5;entryY=0;entryDx=0;entryDy=0;" parent="YB-0g0CseuGmf6FloTCW-1" source="YB-0g0CseuGmf6FloTCW-13" target="0CW6hpu5KKrxGrhu5_Tq-18" edge="1">
                    &#xa;
                    <mxGeometry relative="1" as="geometry">
                        &#xa;
                        <mxPoint x="302.19000000000005" y="335" as="targetPoint"/>
                        &#xa;
                    </mxGeometry>
                    &#xa;
                </mxCell>
                &#xa;
                <mxCell id="0CW6hpu5KKrxGrhu5_Tq-17" value="NO" style="edgeLabel;html=1;align=center;verticalAlign=middle;resizable=0;points=[];" parent="0CW6hpu5KKrxGrhu5_Tq-15" vertex="1" connectable="0">
                    &#xa;
                    <mxGeometry x="-0.6266" y="1" relative="1" as="geometry">
                        &#xa;
                        <mxPoint x="-13" y="-1" as="offset"/>
                        &#xa;
                    </mxGeometry>
                    &#xa;
                </mxCell>
                &#xa;
                <mxCell id="YB-0g0CseuGmf6FloTCW-13" value="Prod. encontrado?" style="rhombus;whiteSpace=wrap;html=1;" parent="YB-0g0CseuGmf6FloTCW-1" vertex="1">
                    &#xa;
                    <mxGeometry x="377.19" y="290" width="110" height="90" as="geometry"/>
                    &#xa;
                </mxCell>
                &#xa;
                <mxCell id="0CW6hpu5KKrxGrhu5_Tq-1" style="edgeStyle=orthogonalEdgeStyle;rounded=0;orthogonalLoop=1;jettySize=auto;html=1;exitX=0.5;exitY=1;exitDx=0;exitDy=0;entryX=0.5;entryY=0;entryDx=0;entryDy=0;" parent="YB-0g0CseuGmf6FloTCW-1" source="YB-0g0CseuGmf6FloTCW-16" target="YB-0g0CseuGmf6FloTCW-21" edge="1">
                    &#xa;
                    <mxGeometry relative="1" as="geometry"/>
                    &#xa;
                </mxCell>
                &#xa;
                <mxCell id="YB-0g0CseuGmf6FloTCW-16" value="relleno inputboxes" style="rounded=1;whiteSpace=wrap;html=1;" parent="YB-0g0CseuGmf6FloTCW-1" vertex="1">
                    &#xa;
                    <mxGeometry x="562.19" y="320" width="90" height="30" as="geometry"/>
                    &#xa;
                </mxCell>
                &#xa;
                <mxCell id="0CW6hpu5KKrxGrhu5_Tq-7" style="edgeStyle=orthogonalEdgeStyle;rounded=0;orthogonalLoop=1;jettySize=auto;html=1;entryX=0.5;entryY=0;entryDx=0;entryDy=0;" parent="YB-0g0CseuGmf6FloTCW-1" source="YB-0g0CseuGmf6FloTCW-20" target="0CW6hpu5KKrxGrhu5_Tq-3" edge="1">
                    &#xa;
                    <mxGeometry relative="1" as="geometry"/>
                    &#xa;
                </mxCell>
                &#xa;
                <mxCell id="0CW6hpu5KKrxGrhu5_Tq-11" value="SI" style="edgeLabel;html=1;align=center;verticalAlign=middle;resizable=0;points=[];" parent="0CW6hpu5KKrxGrhu5_Tq-7" vertex="1" connectable="0">
                    &#xa;
                    <mxGeometry x="-0.6219" relative="1" as="geometry">
                        &#xa;
                        <mxPoint as="offset"/>
                        &#xa;
                    </mxGeometry>
                    &#xa;
                </mxCell>
                &#xa;
                <mxCell id="0CW6hpu5KKrxGrhu5_Tq-9" style="edgeStyle=orthogonalEdgeStyle;rounded=0;orthogonalLoop=1;jettySize=auto;html=1;entryX=0.5;entryY=0;entryDx=0;entryDy=0;" parent="YB-0g0CseuGmf6FloTCW-1" source="YB-0g0CseuGmf6FloTCW-20" target="0CW6hpu5KKrxGrhu5_Tq-8" edge="1">
                    &#xa;
                    <mxGeometry relative="1" as="geometry"/>
                    &#xa;
                </mxCell>
                &#xa;
                <mxCell id="0CW6hpu5KKrxGrhu5_Tq-12" value="NO" style="edgeLabel;html=1;align=center;verticalAlign=middle;resizable=0;points=[];" parent="0CW6hpu5KKrxGrhu5_Tq-9" vertex="1" connectable="0">
                    &#xa;
                    <mxGeometry x="-0.6561" relative="1" as="geometry">
                        &#xa;
                        <mxPoint as="offset"/>
                        &#xa;
                    </mxGeometry>
                    &#xa;
                </mxCell>
                &#xa;
                <mxCell id="YB-0g0CseuGmf6FloTCW-20" value="Datos Cambiados&lt;br&gt;e&lt;br&gt;Input Completos" style="rhombus;whiteSpace=wrap;html=1;" parent="YB-0g0CseuGmf6FloTCW-1" vertex="1">
                    &#xa;
                    <mxGeometry x="527.8199999999999" y="490" width="158.75" height="120" as="geometry"/>
                    &#xa;
                </mxCell>
                &#xa;
                <mxCell id="0CW6hpu5KKrxGrhu5_Tq-2" style="edgeStyle=orthogonalEdgeStyle;rounded=0;orthogonalLoop=1;jettySize=auto;html=1;" parent="YB-0g0CseuGmf6FloTCW-1" source="YB-0g0CseuGmf6FloTCW-21" target="YB-0g0CseuGmf6FloTCW-20" edge="1">
                    &#xa;
                    <mxGeometry relative="1" as="geometry"/>
                    &#xa;
                </mxCell>
                &#xa;
                <mxCell id="YB-0g0CseuGmf6FloTCW-21" value="Ingreso datos a modificar&amp;nbsp;" style="rounded=1;whiteSpace=wrap;html=1;" parent="YB-0g0CseuGmf6FloTCW-1" vertex="1">
                    &#xa;
                    <mxGeometry x="557.19" y="410" width="100" height="40" as="geometry"/>
                    &#xa;
                </mxCell>
                &#xa;
                <mxCell id="0CW6hpu5KKrxGrhu5_Tq-3" value="Boton Modificar Activado" style="rounded=1;whiteSpace=wrap;html=1;" parent="YB-0g0CseuGmf6FloTCW-1" vertex="1">
                    &#xa;
                    <mxGeometry x="692.19" y="600" width="105" height="40" as="geometry"/>
                    &#xa;
                </mxCell>
                &#xa;
                <mxCell id="0CW6hpu5KKrxGrhu5_Tq-8" value="Boton Modificar Desactivado" style="rounded=1;whiteSpace=wrap;html=1;" parent="YB-0g0CseuGmf6FloTCW-1" vertex="1">
                    &#xa;
                    <mxGeometry x="554.69" y="670" width="105" height="40" as="geometry"/>
                    &#xa;
                </mxCell>
                &#xa;
                <mxCell id="0CW6hpu5KKrxGrhu5_Tq-21" style="edgeStyle=orthogonalEdgeStyle;rounded=0;orthogonalLoop=1;jettySize=auto;html=1;entryX=0.5;entryY=0;entryDx=0;entryDy=0;" parent="YB-0g0CseuGmf6FloTCW-1" source="0CW6hpu5KKrxGrhu5_Tq-18" target="0CW6hpu5KKrxGrhu5_Tq-20" edge="1">
                    &#xa;
                    <mxGeometry relative="1" as="geometry"/>
                    &#xa;
                </mxCell>
                &#xa;
                <mxCell id="0CW6hpu5KKrxGrhu5_Tq-18" value="Ingreso datos a ingresar&amp;nbsp;" style="rounded=1;whiteSpace=wrap;html=1;" parent="YB-0g0CseuGmf6FloTCW-1" vertex="1">
                    &#xa;
                    <mxGeometry x="207.19" y="410" width="100" height="40" as="geometry"/>
                    &#xa;
                </mxCell>
                &#xa;
                <mxCell id="0CW6hpu5KKrxGrhu5_Tq-23" style="edgeStyle=orthogonalEdgeStyle;rounded=0;orthogonalLoop=1;jettySize=auto;html=1;entryX=0.5;entryY=0;entryDx=0;entryDy=0;" parent="YB-0g0CseuGmf6FloTCW-1" source="0CW6hpu5KKrxGrhu5_Tq-20" target="0CW6hpu5KKrxGrhu5_Tq-22" edge="1">
                    &#xa;
                    <mxGeometry relative="1" as="geometry"/>
                    &#xa;
                </mxCell>
                &#xa;
                <mxCell id="0CW6hpu5KKrxGrhu5_Tq-24" value="SI" style="edgeLabel;html=1;align=center;verticalAlign=middle;resizable=0;points=[];" parent="0CW6hpu5KKrxGrhu5_Tq-23" vertex="1" connectable="0">
                    &#xa;
                    <mxGeometry x="-0.5982" y="2" relative="1" as="geometry">
                        &#xa;
                        <mxPoint x="-4" y="-2" as="offset"/>
                        &#xa;
                    </mxGeometry>
                    &#xa;
                </mxCell>
                &#xa;
                <mxCell id="0CW6hpu5KKrxGrhu5_Tq-26" style="edgeStyle=orthogonalEdgeStyle;rounded=0;orthogonalLoop=1;jettySize=auto;html=1;entryX=0.5;entryY=0;entryDx=0;entryDy=0;" parent="YB-0g0CseuGmf6FloTCW-1" source="0CW6hpu5KKrxGrhu5_Tq-20" target="0CW6hpu5KKrxGrhu5_Tq-25" edge="1">
                    &#xa;
                    <mxGeometry relative="1" as="geometry"/>
                    &#xa;
                </mxCell>
                &#xa;
                <mxCell id="0CW6hpu5KKrxGrhu5_Tq-27" value="NO" style="edgeLabel;html=1;align=center;verticalAlign=middle;resizable=0;points=[];" parent="0CW6hpu5KKrxGrhu5_Tq-26" vertex="1" connectable="0">
                    &#xa;
                    <mxGeometry x="-0.7269" relative="1" as="geometry">
                        &#xa;
                        <mxPoint as="offset"/>
                        &#xa;
                    </mxGeometry>
                    &#xa;
                </mxCell>
                &#xa;
                <mxCell id="0CW6hpu5KKrxGrhu5_Tq-20" value="Input Completos" style="rhombus;whiteSpace=wrap;html=1;" parent="YB-0g0CseuGmf6FloTCW-1" vertex="1">
                    &#xa;
                    <mxGeometry x="190.01" y="520" width="134.37" height="60" as="geometry"/>
                    &#xa;
                </mxCell>
                &#xa;
                <mxCell id="0CW6hpu5KKrxGrhu5_Tq-22" value="Boton Ingresar Activado" style="rounded=1;whiteSpace=wrap;html=1;" parent="YB-0g0CseuGmf6FloTCW-1" vertex="1">
                    &#xa;
                    <mxGeometry x="60.00000000000006" y="600" width="105" height="40" as="geometry"/>
                    &#xa;
                </mxCell>
                &#xa;
                <mxCell id="0CW6hpu5KKrxGrhu5_Tq-25" value="Boton Ingresar Desactivado" style="rounded=1;whiteSpace=wrap;html=1;" parent="YB-0g0CseuGmf6FloTCW-1" vertex="1">
                    &#xa;
                    <mxGeometry x="204.69000000000005" y="670" width="105" height="40" as="geometry"/>
                    &#xa;
                </mxCell>
                &#xa;
                <mxCell id="VaLfvNO_BfLZUskdFgci-1" style="edgeStyle=orthogonalEdgeStyle;rounded=0;orthogonalLoop=1;jettySize=auto;html=1;" parent="YB-0g0CseuGmf6FloTCW-1" source="VaLfvNO_BfLZUskdFgci-0" target="YB-0g0CseuGmf6FloTCW-12" edge="1">
                    &#xa;
                    <mxGeometry relative="1" as="geometry"/>
                    &#xa;
                </mxCell>
                &#xa;
                <mxCell id="VaLfvNO_BfLZUskdFgci-0" value="Inicio" style="ellipse;whiteSpace=wrap;html=1;aspect=fixed;" parent="YB-0g0CseuGmf6FloTCW-1" vertex="1">
                    &#xa;
                    <mxGeometry x="392.19" y="110" width="80" height="80" as="geometry"/>
                    &#xa;
                </mxCell>
                &#xa;
            </root>
            &#xa;
        </mxGraphModel>
        &#xa;
    </diagram>
    <diagram id="sybRk2pC4Ed0qiCN2vf_" name="Estados modificacion codigo">
        &#xa;
        <mxGraphModel dx="652" dy="314" grid="1" gridSize="10" guides="1" tooltips="1" connect="1" arrows="1" fold="1" page="1" pageScale="1" pageWidth="850" pageHeight="1100" math="0" shadow="0">
            &#xa;
            <root>
                &#xa;
                <mxCell id="qzJQSjbdYwHF-20xfoX3-0"/>
                &#xa;
                <mxCell id="qzJQSjbdYwHF-20xfoX3-1" parent="qzJQSjbdYwHF-20xfoX3-0"/>
                &#xa;
                <mxCell id="Zi4YE642EBSzE3LCobRU-15" value="" style="rounded=0;whiteSpace=wrap;html=1;" parent="qzJQSjbdYwHF-20xfoX3-1" vertex="1">
                    &#xa;
                    <mxGeometry x="10" y="50" width="580" height="150" as="geometry"/>
                    &#xa;
                </mxCell>
                &#xa;
                <mxCell id="Zi4YE642EBSzE3LCobRU-10" style="edgeStyle=orthogonalEdgeStyle;rounded=0;orthogonalLoop=1;jettySize=auto;html=1;" parent="qzJQSjbdYwHF-20xfoX3-1" source="Zi4YE642EBSzE3LCobRU-1" target="Zi4YE642EBSzE3LCobRU-7" edge="1">
                    &#xa;
                    <mxGeometry relative="1" as="geometry"/>
                    &#xa;
                </mxCell>
                &#xa;
                <mxCell id="Zi4YE642EBSzE3LCobRU-12" value="Busqueda&lt;br&gt;exitosa" style="edgeLabel;html=1;align=center;verticalAlign=middle;resizable=0;points=[];" parent="Zi4YE642EBSzE3LCobRU-10" vertex="1" connectable="0">
                    &#xa;
                    <mxGeometry x="-0.3177" relative="1" as="geometry">
                        &#xa;
                        <mxPoint x="25.520000000000003" as="offset"/>
                        &#xa;
                    </mxGeometry>
                    &#xa;
                </mxCell>
                &#xa;
                <mxCell id="Zi4YE642EBSzE3LCobRU-1" value="Sin producto/ Producto nuevo" style="ellipse;whiteSpace=wrap;html=1;aspect=fixed;" parent="qzJQSjbdYwHF-20xfoX3-1" vertex="1">
                    &#xa;
                    <mxGeometry x="200" y="70" width="80" height="80" as="geometry"/>
                    &#xa;
                </mxCell>
                &#xa;
                <mxCell id="Zi4YE642EBSzE3LCobRU-4" style="edgeStyle=orthogonalEdgeStyle;rounded=0;orthogonalLoop=1;jettySize=auto;html=1;entryX=0;entryY=0.5;entryDx=0;entryDy=0;" parent="qzJQSjbdYwHF-20xfoX3-1" source="Zi4YE642EBSzE3LCobRU-3" target="Zi4YE642EBSzE3LCobRU-1" edge="1">
                    &#xa;
                    <mxGeometry relative="1" as="geometry"/>
                    &#xa;
                </mxCell>
                &#xa;
                <mxCell id="Zi4YE642EBSzE3LCobRU-3" value="Inicio" style="ellipse;whiteSpace=wrap;html=1;aspect=fixed;" parent="qzJQSjbdYwHF-20xfoX3-1" vertex="1">
                    &#xa;
                    <mxGeometry x="30" y="70" width="80" height="80" as="geometry"/>
                    &#xa;
                </mxCell>
                &#xa;
                <mxCell id="Zi4YE642EBSzE3LCobRU-6" value="&lt;font style=&quot;font-size: 18px&quot;&gt;Estado de productos al alterar el textbox del codigo de barras&lt;/font&gt;" style="text;html=1;strokeColor=none;fillColor=none;align=center;verticalAlign=middle;whiteSpace=wrap;rounded=0;" parent="qzJQSjbdYwHF-20xfoX3-1" vertex="1">
                    &#xa;
                    <mxGeometry x="10" y="10" width="590" height="30" as="geometry"/>
                    &#xa;
                </mxCell>
                &#xa;
                <mxCell id="Zi4YE642EBSzE3LCobRU-7" value="Producto existente" style="ellipse;whiteSpace=wrap;html=1;aspect=fixed;" parent="qzJQSjbdYwHF-20xfoX3-1" vertex="1">
                    &#xa;
                    <mxGeometry x="440" y="70" width="80" height="80" as="geometry"/>
                    &#xa;
                </mxCell>
                &#xa;
                <mxCell id="Zi4YE642EBSzE3LCobRU-13" value="" style="endArrow=classic;html=1;exitX=0;exitY=0;exitDx=0;exitDy=0;entryX=1;entryY=0;entryDx=0;entryDy=0;" parent="qzJQSjbdYwHF-20xfoX3-1" source="Zi4YE642EBSzE3LCobRU-7" target="Zi4YE642EBSzE3LCobRU-1" edge="1">
                    &#xa;
                    <mxGeometry width="50" height="50" relative="1" as="geometry">
                        &#xa;
                        <mxPoint x="350" y="180" as="sourcePoint"/>
                        &#xa;
                        <mxPoint x="400" y="130" as="targetPoint"/>
                        &#xa;
                    </mxGeometry>
                    &#xa;
                </mxCell>
                &#xa;
                <mxCell id="Zi4YE642EBSzE3LCobRU-14" value="Busqueda Fallida" style="edgeLabel;html=1;align=center;verticalAlign=middle;resizable=0;points=[];" parent="Zi4YE642EBSzE3LCobRU-13" vertex="1" connectable="0">
                    &#xa;
                    <mxGeometry x="0.3546" relative="1" as="geometry">
                        &#xa;
                        <mxPoint x="42.67" as="offset"/>
                        &#xa;
                    </mxGeometry>
                    &#xa;
                </mxCell>
                &#xa;
                <mxCell id="Zi4YE642EBSzE3LCobRU-16" value="&lt;font style=&quot;font-size: 18px&quot;&gt;Buscar por codigo&lt;/font&gt;" style="text;html=1;strokeColor=none;fillColor=none;align=center;verticalAlign=middle;whiteSpace=wrap;rounded=0;" parent="qzJQSjbdYwHF-20xfoX3-1" vertex="1">
                    &#xa;
                    <mxGeometry x="380" y="170" width="180" height="20" as="geometry"/>
                    &#xa;
                </mxCell>
                &#xa;
                <mxCell id="Zi4YE642EBSzE3LCobRU-17" value="" style="endArrow=classic;html=1;exitX=1;exitY=0.5;exitDx=0;exitDy=0;entryX=1;entryY=1;entryDx=0;entryDy=0;" parent="qzJQSjbdYwHF-20xfoX3-1" source="Zi4YE642EBSzE3LCobRU-1" target="Zi4YE642EBSzE3LCobRU-1" edge="1">
                    &#xa;
                    <mxGeometry width="50" height="50" relative="1" as="geometry">
                        &#xa;
                        <mxPoint x="300" y="200" as="sourcePoint"/>
                        &#xa;
                        <mxPoint x="370" y="260" as="targetPoint"/>
                        &#xa;
                        <Array as="points">
                            &#xa;
                            <mxPoint x="320" y="130"/>
                            &#xa;
                            <mxPoint x="320" y="150"/>
                            &#xa;
                            <mxPoint x="310" y="150"/>
                            &#xa;
                        </Array>
                        &#xa;
                    </mxGeometry>
                    &#xa;
                </mxCell>
                &#xa;
                <mxCell id="Zi4YE642EBSzE3LCobRU-18" value="Busqueda&amp;nbsp;&lt;br&gt;fallida" style="edgeLabel;html=1;align=center;verticalAlign=middle;resizable=0;points=[];" parent="Zi4YE642EBSzE3LCobRU-17" vertex="1" connectable="0">
                    &#xa;
                    <mxGeometry x="0.3268" y="2" relative="1" as="geometry">
                        &#xa;
                        <mxPoint x="34.290000000000006" y="-0.870000000000001" as="offset"/>
                        &#xa;
                    </mxGeometry>
                    &#xa;
                </mxCell>
                &#xa;
                <mxCell id="Zi4YE642EBSzE3LCobRU-21" value="" style="rounded=0;whiteSpace=wrap;html=1;" parent="qzJQSjbdYwHF-20xfoX3-1" vertex="1">
                    &#xa;
                    <mxGeometry x="10" y="210" width="580" height="250" as="geometry"/>
                    &#xa;
                </mxCell>
                &#xa;
                <mxCell id="Zi4YE642EBSzE3LCobRU-37" style="edgeStyle=orthogonalEdgeStyle;rounded=0;orthogonalLoop=1;jettySize=auto;html=1;entryX=0;entryY=0.5;entryDx=0;entryDy=0;" parent="qzJQSjbdYwHF-20xfoX3-1" source="Zi4YE642EBSzE3LCobRU-24" target="Zi4YE642EBSzE3LCobRU-35" edge="1">
                    &#xa;
                    <mxGeometry relative="1" as="geometry">
                        &#xa;
                        <Array as="points">
                            &#xa;
                            <mxPoint x="240" y="350"/>
                            &#xa;
                            <mxPoint x="300" y="350"/>
                            &#xa;
                            <mxPoint x="300" y="400"/>
                            &#xa;
                        </Array>
                        &#xa;
                    </mxGeometry>
                    &#xa;
                </mxCell>
                &#xa;
                <mxCell id="Zi4YE642EBSzE3LCobRU-24" value="Sin producto" style="ellipse;whiteSpace=wrap;html=1;aspect=fixed;" parent="qzJQSjbdYwHF-20xfoX3-1" vertex="1">
                    &#xa;
                    <mxGeometry x="200" y="230" width="80" height="80" as="geometry"/>
                    &#xa;
                </mxCell>
                &#xa;
                <mxCell id="Zi4YE642EBSzE3LCobRU-25" style="edgeStyle=orthogonalEdgeStyle;rounded=0;orthogonalLoop=1;jettySize=auto;html=1;entryX=0;entryY=0.5;entryDx=0;entryDy=0;" parent="qzJQSjbdYwHF-20xfoX3-1" source="Zi4YE642EBSzE3LCobRU-27" target="Zi4YE642EBSzE3LCobRU-24" edge="1">
                    &#xa;
                    <mxGeometry relative="1" as="geometry"/>
                    &#xa;
                </mxCell>
                &#xa;
                <mxCell id="Zi4YE642EBSzE3LCobRU-26" value="TB Vacio" style="edgeLabel;html=1;align=center;verticalAlign=middle;resizable=0;points=[];" parent="Zi4YE642EBSzE3LCobRU-25" vertex="1" connectable="0">
                    &#xa;
                    <mxGeometry x="-0.3445" relative="1" as="geometry">
                        &#xa;
                        <mxPoint x="13.79" as="offset"/>
                        &#xa;
                    </mxGeometry>
                    &#xa;
                </mxCell>
                &#xa;
                <mxCell id="Zi4YE642EBSzE3LCobRU-27" value="Inicio" style="ellipse;whiteSpace=wrap;html=1;aspect=fixed;" parent="qzJQSjbdYwHF-20xfoX3-1" vertex="1">
                    &#xa;
                    <mxGeometry x="30" y="230" width="80" height="80" as="geometry"/>
                    &#xa;
                </mxCell>
                &#xa;
                <mxCell id="Zi4YE642EBSzE3LCobRU-28" value="Producto existente" style="ellipse;whiteSpace=wrap;html=1;aspect=fixed;" parent="qzJQSjbdYwHF-20xfoX3-1" vertex="1">
                    &#xa;
                    <mxGeometry x="410" y="230" width="80" height="80" as="geometry"/>
                    &#xa;
                </mxCell>
                &#xa;
                <mxCell id="Zi4YE642EBSzE3LCobRU-31" value="&lt;font style=&quot;font-size: 18px&quot;&gt;Editar&amp;nbsp; codigo&lt;/font&gt;" style="text;html=1;strokeColor=none;fillColor=none;align=center;verticalAlign=middle;whiteSpace=wrap;rounded=0;" parent="qzJQSjbdYwHF-20xfoX3-1" vertex="1">
                    &#xa;
                    <mxGeometry x="425" y="420" width="130" height="20" as="geometry"/>
                    &#xa;
                </mxCell>
                &#xa;
                <mxCell id="Zi4YE642EBSzE3LCobRU-35" value="Producto&lt;br&gt;Nuevo" style="ellipse;whiteSpace=wrap;html=1;aspect=fixed;" parent="qzJQSjbdYwHF-20xfoX3-1" vertex="1">
                    &#xa;
                    <mxGeometry x="320" y="360" width="80" height="80" as="geometry"/>
                    &#xa;
                </mxCell>
                &#xa;
                <mxCell id="Zi4YE642EBSzE3LCobRU-39" style="edgeStyle=orthogonalEdgeStyle;rounded=0;orthogonalLoop=1;jettySize=auto;html=1;" parent="qzJQSjbdYwHF-20xfoX3-1" source="Zi4YE642EBSzE3LCobRU-28" target="Zi4YE642EBSzE3LCobRU-28" edge="1">
                    &#xa;
                    <mxGeometry relative="1" as="geometry"/>
                    &#xa;
                </mxCell>
                &#xa;
                <mxCell id="Zi4YE642EBSzE3LCobRU-40" style="edgeStyle=orthogonalEdgeStyle;rounded=0;orthogonalLoop=1;jettySize=auto;html=1;entryX=1;entryY=0.5;entryDx=0;entryDy=0;" parent="qzJQSjbdYwHF-20xfoX3-1" source="Zi4YE642EBSzE3LCobRU-35" target="Zi4YE642EBSzE3LCobRU-35" edge="1">
                    &#xa;
                    <mxGeometry relative="1" as="geometry"/>
                    &#xa;
                </mxCell>
                &#xa;
                <mxCell id="Zi4YE642EBSzE3LCobRU-41" style="edgeStyle=orthogonalEdgeStyle;rounded=0;orthogonalLoop=1;jettySize=auto;html=1;exitX=0.5;exitY=1;exitDx=0;exitDy=0;" parent="qzJQSjbdYwHF-20xfoX3-1" source="Zi4YE642EBSzE3LCobRU-21" target="Zi4YE642EBSzE3LCobRU-21" edge="1">
                    &#xa;
                    <mxGeometry relative="1" as="geometry"/>
                    &#xa;
                </mxCell>
                &#xa;
                <mxCell id="Zi4YE642EBSzE3LCobRU-43" style="edgeStyle=orthogonalEdgeStyle;rounded=0;orthogonalLoop=1;jettySize=auto;html=1;exitX=0.5;exitY=1;exitDx=0;exitDy=0;" parent="qzJQSjbdYwHF-20xfoX3-1" source="Zi4YE642EBSzE3LCobRU-21" target="Zi4YE642EBSzE3LCobRU-21" edge="1">
                    &#xa;
                    <mxGeometry relative="1" as="geometry"/>
                    &#xa;
                </mxCell>
                &#xa;
            </root>
            &#xa;
        </mxGraphModel>
        &#xa;
    </diagram>
    <diagram id="oRcnH02piDqZu4EgNtf0" name="Page-4">
        <mxGraphModel dx="652" dy="314" grid="1" gridSize="10" guides="1" tooltips="1" connect="1" arrows="1" fold="1" page="1" pageScale="1" pageWidth="850" pageHeight="1100" math="0" shadow="0">
            <root>
                <mxCell id="z4P0wJfV7RbFpYf0Gy92-0"/>
                <mxCell id="z4P0wJfV7RbFpYf0Gy92-1" parent="z4P0wJfV7RbFpYf0Gy92-0"/>
                <mxCell id="z4P0wJfV7RbFpYf0Gy92-4" style="edgeStyle=orthogonalEdgeStyle;rounded=0;orthogonalLoop=1;jettySize=auto;html=1;" parent="z4P0wJfV7RbFpYf0Gy92-1" source="z4P0wJfV7RbFpYf0Gy92-2" target="z4P0wJfV7RbFpYf0Gy92-3" edge="1">
                    <mxGeometry relative="1" as="geometry"/>
                </mxCell>
                <mxCell id="WJ8oj8ZCeXHoguXZv3ny-1" style="edgeStyle=orthogonalEdgeStyle;rounded=0;orthogonalLoop=1;jettySize=auto;html=1;entryX=0;entryY=0.5;entryDx=0;entryDy=0;" edge="1" parent="z4P0wJfV7RbFpYf0Gy92-1" source="z4P0wJfV7RbFpYf0Gy92-2" target="WJ8oj8ZCeXHoguXZv3ny-2">
                    <mxGeometry relative="1" as="geometry">
                        <mxPoint x="510" y="90" as="targetPoint"/>
                    </mxGeometry>
                </mxCell>
                <mxCell id="z4P0wJfV7RbFpYf0Gy92-2" value="Ingresar Productos" style="rounded=1;whiteSpace=wrap;html=1;" parent="z4P0wJfV7RbFpYf0Gy92-1" vertex="1">
                    <mxGeometry x="310" y="60" width="120" height="60" as="geometry"/>
                </mxCell>
                <mxCell id="z4P0wJfV7RbFpYf0Gy92-3" value="Producto+1&lt;br&gt;Producto+n" style="rounded=1;whiteSpace=wrap;html=1;" parent="z4P0wJfV7RbFpYf0Gy92-1" vertex="1">
                    <mxGeometry x="310" y="180" width="120" height="60" as="geometry"/>
                </mxCell>
                <mxCell id="WJ8oj8ZCeXHoguXZv3ny-4" style="edgeStyle=orthogonalEdgeStyle;rounded=0;orthogonalLoop=1;jettySize=auto;html=1;entryX=0;entryY=0.5;entryDx=0;entryDy=0;" edge="1" parent="z4P0wJfV7RbFpYf0Gy92-1" source="WJ8oj8ZCeXHoguXZv3ny-2" target="WJ8oj8ZCeXHoguXZv3ny-3">
                    <mxGeometry relative="1" as="geometry"/>
                </mxCell>
                <mxCell id="WJ8oj8ZCeXHoguXZv3ny-2" value="ingresar datos necesarios" style="rounded=0;whiteSpace=wrap;html=1;" vertex="1" parent="z4P0wJfV7RbFpYf0Gy92-1">
                    <mxGeometry x="480" y="65" width="100" height="50" as="geometry"/>
                </mxCell>
                <mxCell id="WJ8oj8ZCeXHoguXZv3ny-3" value="revisar duplicidad de sku y marca" style="rounded=0;whiteSpace=wrap;html=1;" vertex="1" parent="z4P0wJfV7RbFpYf0Gy92-1">
                    <mxGeometry x="640" y="57.5" width="110" height="65" as="geometry"/>
                </mxCell>
            </root>
        </mxGraphModel>
    </diagram>
</mxfile>